name Walk3_EMG.mot
datacolumns 17
datarows 16
range 3.27300000 3.28800000
endheader
                time	            vasmed_r	            vaslat_r	            recfem_r	               gra_r	               sar_r	            tibant_r	           perlong_r	            addmag_r	           semimem_r	          bicfemlh_r	            gasmed_r	            gaslat_r	               sol_r	               tfl_r	              gmed_r	              gmax_r	
          3.27300000	          0.45968171	          0.59454744	          0.41486252	          0.13943503	          0.19708686	          0.09738748	          0.77061327	          0.99772604	          0.08677292	          0.11031804	          0.22561788	          0.41330511	          0.33557904	          0.49466300	          0.49494982	          0.44730500	
          3.27400000	          0.45514660	          0.58370023	          0.40789782	          0.14072900	          0.20635289	          0.09543211	          0.75748834	          0.99514053	          0.08691329	          0.10821670	          0.22440859	          0.40927544	          0.33675686	          0.48971784	          0.49360280	          0.45364981	
          3.27500000	          0.45020920	          0.57307591	          0.40074710	          0.14194718	          0.21600563	          0.09350828	          0.74375895	          0.99166334	          0.08709309	          0.10628166	          0.22311083	          0.40486726	          0.33780484	          0.48468273	          0.49208875	          0.45987213	
          3.27600000	          0.44488841	          0.56267543	          0.39343239	          0.14308353	          0.22602445	          0.09161954	          0.72945089	          0.98735518	          0.08731192	          0.10452364	          0.22173194	          0.40009259	          0.33871676	          0.47957844	          0.49040815	          0.46593291	
          3.27700000	          0.43920392	          0.55249621	          0.38597776	          0.14413238	          0.23639214	          0.08976872	          0.71459130	          0.98228069	          0.08756806	          0.10295326	          0.22028087	          0.39496636	          0.33948613	          0.47442215	          0.48856060	          0.47179311	
          3.27800000	          0.43317569	          0.54253273	          0.37840886	          0.14508861	          0.24709435	          0.08795806	          0.69920963	          0.97650552	          0.08785847	          0.10158226	          0.21877035	          0.38950740	          0.34010614	          0.46922715	          0.48654475	          0.47741429	
          3.27900000	          0.42682483	          0.53277744	          0.37075123	          0.14594763	          0.25811731	          0.08618932	          0.68333895	          0.97009220	          0.08817893	          0.10042284	          0.21721698	          0.38373867	          0.34056995	          0.46400442	          0.48435809	          0.48275971	
          3.28000000	          0.42017513	          0.52322218	          0.36302925	          0.14670560	          0.26944570	          0.08446374	          0.66701624	          0.96309758	          0.08852422	          0.09948504	          0.21564141	          0.37768700	          0.34087170	          0.45876350	          0.48199765	          0.48779440	
          3.28100000	          0.41325289	          0.51385978	          0.35526701	          0.14735955	          0.28106088	          0.08278214	          0.65028122	          0.95557235	          0.08888817	          0.09877527	          0.21406927	          0.37138244	          0.34100857	          0.45351183	          0.47946131	          0.49248431	
          3.28200000	          0.40608536	          0.50468495	          0.34748920	          0.14790691	          0.29293862	          0.08114497	          0.63317503	          0.94756102	          0.08926402	          0.09829685	          0.21252955	          0.36485685	          0.34098228	          0.44825405	          0.47674812	          0.49679592	
          3.28300000	          0.39869983	          0.49569377	          0.33971993	          0.14834553	          0.30504752	          0.07955231	          0.61573929	          0.93910225	          0.08964478	          0.09805090	          0.21105125	          0.35814268	          0.34079794	          0.44299207	          0.47385709	          0.50069668	
          3.28400000	          0.39112365	          0.48688254	          0.33198076	          0.14867414	          0.31734919	          0.07800401	          0.59801535	          0.93023008	          0.09002370	          0.09803667	          0.20966230	          0.35127224	          0.34046170	          0.43772519	          0.47078636	          0.50415548	
          3.28500000	          0.38338379	          0.47824742	          0.32428972	          0.14889236	          0.32979991	          0.07649983	          0.58004399	          0.92097478	          0.09039458	          0.09825114	          0.20838903	          0.34427671	          0.33998061	          0.43245054	          0.46753381	          0.50714301	
          3.28600000	          0.37550663	          0.46978515	          0.31666169	          0.14900014	          0.34235217	          0.07503957	          0.56186624	          0.91136302	          0.09075172	          0.09868896	          0.20725427	          0.33718505	          0.33936419	          0.42716403	          0.46409808	          0.50963248	
          3.28700000	          0.36751801	          0.46149425	          0.30910950	          0.14899794	          0.35495586	          0.07362344	          0.54352726	          0.90141791	          0.09108981	          0.09934256	          0.20627625	          0.33002365	          0.33862400	          0.42186168	          0.46047929	          0.51160180	
          3.28800000	          0.35944289	          0.45337570	          0.30164539	          0.14888717	          0.36755915	          0.07225248	          0.52508228	          0.89115927	          0.09140391	          0.10020246	          0.20546936	          0.32281683	          0.33777156	          0.41654291	          0.45667977	          0.51303570	
